<mxfile host="Electron" modified="2024-04-24T17:51:22.556Z" agent="Mozilla/5.0 (Windows NT 10.0; Win64; x64) AppleWebKit/537.36 (KHTML, like Gecko) draw.io/23.1.5 Chrome/120.0.6099.109 Electron/28.1.0 Safari/537.36" etag="lhpUvDDCT-4Ev5iMy_vy" version="23.1.5" type="device">
  <diagram name="Page-1" id="13e1069c-82ec-6db2-03f1-153e76fe0fe0">
    <mxGraphModel dx="1178" dy="790" grid="1" gridSize="10" guides="1" tooltips="1" connect="1" arrows="1" fold="1" page="1" pageScale="1" pageWidth="1100" pageHeight="850" background="none" math="0" shadow="0">
      <root>
        <mxCell id="0" />
        <mxCell id="1" parent="0" />
        <mxCell id="06PfuFQ36FPQEAHMCqTj-12" value="Вкладка &quot;Список сотрудников&quot;" style="shape=umlLifeline;perimeter=lifelinePerimeter;whiteSpace=wrap;html=1;container=1;collapsible=0;recursiveResize=0;outlineConnect=0;rounded=1;shadow=0;comic=0;labelBackgroundColor=none;strokeWidth=1;fontFamily=Verdana;fontSize=12;align=center;" vertex="1" parent="1">
          <mxGeometry x="350" y="90" width="100" height="280" as="geometry" />
        </mxCell>
        <mxCell id="06PfuFQ36FPQEAHMCqTj-13" value="" style="html=1;points=[];perimeter=orthogonalPerimeter;rounded=0;shadow=0;comic=0;labelBackgroundColor=none;strokeWidth=1;fontFamily=Verdana;fontSize=12;align=center;" vertex="1" parent="06PfuFQ36FPQEAHMCqTj-12">
          <mxGeometry x="45" y="100" width="10" height="170" as="geometry" />
        </mxCell>
        <mxCell id="06PfuFQ36FPQEAHMCqTj-14" value="Вкладка &quot;Список сотрудников&quot;" style="shape=umlLifeline;perimeter=lifelinePerimeter;whiteSpace=wrap;html=1;container=1;collapsible=0;recursiveResize=0;outlineConnect=0;rounded=1;shadow=0;comic=0;labelBackgroundColor=none;strokeWidth=1;fontFamily=Verdana;fontSize=12;align=center;" vertex="1" parent="1">
          <mxGeometry x="580" y="90" width="100" height="280" as="geometry" />
        </mxCell>
        <mxCell id="06PfuFQ36FPQEAHMCqTj-15" value="" style="html=1;points=[];perimeter=orthogonalPerimeter;rounded=0;shadow=0;comic=0;labelBackgroundColor=none;strokeWidth=1;fontFamily=Verdana;fontSize=12;align=center;" vertex="1" parent="06PfuFQ36FPQEAHMCqTj-14">
          <mxGeometry x="45" y="120" width="10" height="160" as="geometry" />
        </mxCell>
        <mxCell id="06PfuFQ36FPQEAHMCqTj-16" value="Основное окно " style="shape=umlLifeline;perimeter=lifelinePerimeter;whiteSpace=wrap;html=1;container=1;collapsible=0;recursiveResize=0;outlineConnect=0;rounded=1;shadow=0;comic=0;labelBackgroundColor=none;strokeWidth=1;fontFamily=Verdana;fontSize=12;align=center;" vertex="1" parent="1">
          <mxGeometry x="100" y="90" width="110" height="280" as="geometry" />
        </mxCell>
        <mxCell id="06PfuFQ36FPQEAHMCqTj-17" value="" style="html=1;points=[];perimeter=orthogonalPerimeter;rounded=0;shadow=0;comic=0;labelBackgroundColor=none;strokeWidth=1;fontFamily=Verdana;fontSize=12;align=center;" vertex="1" parent="06PfuFQ36FPQEAHMCqTj-16">
          <mxGeometry x="50" y="100" width="10" height="180" as="geometry" />
        </mxCell>
        <mxCell id="06PfuFQ36FPQEAHMCqTj-18" value="Открыть вкладку &quot;Список сотрудников&quot;" style="html=1;verticalAlign=bottom;endArrow=block;labelBackgroundColor=none;fontFamily=Verdana;fontSize=12;edgeStyle=elbowEdgeStyle;elbow=vertical;" edge="1" parent="1" target="06PfuFQ36FPQEAHMCqTj-12">
          <mxGeometry x="0.0021" y="20" relative="1" as="geometry">
            <mxPoint x="160" y="200" as="sourcePoint" />
            <mxPoint x="295" y="200" as="targetPoint" />
            <Array as="points">
              <mxPoint x="230" y="200" />
            </Array>
            <mxPoint as="offset" />
          </mxGeometry>
        </mxCell>
        <mxCell id="06PfuFQ36FPQEAHMCqTj-19" value="Возврат" style="html=1;verticalAlign=bottom;endArrow=open;dashed=1;endSize=8;labelBackgroundColor=none;fontFamily=Verdana;fontSize=12;" edge="1" parent="1" source="06PfuFQ36FPQEAHMCqTj-12">
          <mxGeometry x="-0.1966" y="-3" relative="1" as="geometry">
            <mxPoint x="160" y="359.9999999999999" as="targetPoint" />
            <mxPoint x="380" y="360" as="sourcePoint" />
            <Array as="points" />
            <mxPoint x="1" as="offset" />
          </mxGeometry>
        </mxCell>
        <mxCell id="06PfuFQ36FPQEAHMCqTj-20" value="Возврат" style="html=1;verticalAlign=bottom;endArrow=open;dashed=1;endSize=8;labelBackgroundColor=none;fontFamily=Verdana;fontSize=12;" edge="1" parent="1" source="06PfuFQ36FPQEAHMCqTj-14">
          <mxGeometry x="-0.1966" y="-3" relative="1" as="geometry">
            <mxPoint x="410" y="330" as="targetPoint" />
            <mxPoint x="600" y="330" as="sourcePoint" />
            <Array as="points" />
            <mxPoint x="1" as="offset" />
          </mxGeometry>
        </mxCell>
        <mxCell id="06PfuFQ36FPQEAHMCqTj-21" value="Ввод или изменение данных" style="html=1;verticalAlign=bottom;endArrow=block;labelBackgroundColor=none;fontFamily=Verdana;fontSize=12;edgeStyle=elbowEdgeStyle;elbow=vertical;" edge="1" parent="1" target="06PfuFQ36FPQEAHMCqTj-14">
          <mxGeometry relative="1" as="geometry">
            <mxPoint x="410" y="229.5" as="sourcePoint" />
            <Array as="points" />
            <mxPoint x="595" y="229.5" as="targetPoint" />
          </mxGeometry>
        </mxCell>
        <mxCell id="06PfuFQ36FPQEAHMCqTj-22" value="&lt;div&gt;Подтверждение действия&lt;/div&gt;" style="html=1;verticalAlign=bottom;endArrow=block;labelBackgroundColor=none;fontFamily=Verdana;fontSize=12;elbow=vertical;edgeStyle=orthogonalEdgeStyle;curved=1;" edge="1" parent="1" source="06PfuFQ36FPQEAHMCqTj-14" target="06PfuFQ36FPQEAHMCqTj-14">
          <mxGeometry x="-0.166" y="28" relative="1" as="geometry">
            <mxPoint x="965" y="292" as="sourcePoint" />
            <mxPoint x="970" y="330" as="targetPoint" />
            <Array as="points">
              <mxPoint x="730" y="270" />
              <mxPoint x="730" y="310" />
            </Array>
            <mxPoint x="21" y="8" as="offset" />
          </mxGeometry>
        </mxCell>
      </root>
    </mxGraphModel>
  </diagram>
</mxfile>
